<?xml version="1.0" encoding="utf-8"?>
<!-- Generator: Adobe Illustrator 26.0.2, SVG Export Plug-In . SVG Version: 6.00 Build 0)  -->
<svg version="1.1" xmlns="http://www.w3.org/2000/svg" xmlns:xlink="http://www.w3.org/1999/xlink" x="0px" y="0px"
	 viewBox="0 0 32 32" style="enable-background:new 0 0 32 32;" xml:space="preserve">
<style type="text/css">
	.st0{fill:none;}
	.st1{fill:url(#SVGID_1_);}
	.st2{fill:#F2F2F2;}
</style>
<g id="grid">
	<rect x="-442" y="-442" class="st0" width="76.39" height="917"/>
	<rect x="-365.58" y="-442" class="st0" width="76.39" height="917"/>
	<rect x="-289.17" y="-442" class="st0" width="76.39" height="917"/>
	<rect x="-212.75" y="-442" class="st0" width="76.39" height="917"/>
	<rect x="-136.33" y="-442" class="st0" width="76.39" height="917"/>
	<rect x="-59.92" y="-442" class="st0" width="76.39" height="917"/>
	<rect x="16.5" y="-442" class="st0" width="76.39" height="917"/>
	<rect x="92.92" y="-442" class="st0" width="76.39" height="917"/>
	<rect x="169.33" y="-442" class="st0" width="76.39" height="917"/>
	<rect x="245.75" y="-442" class="st0" width="76.39" height="917"/>
	<rect x="322.17" y="-442" class="st0" width="76.39" height="917"/>
	<rect x="398.58" y="-442" class="st0" width="76.39" height="917"/>
	
		<rect x="-21.71" y="-862.29" transform="matrix(-1.836970e-16 1 -1 -1.836970e-16 -387.3083 -420.2763)" class="st0" width="76.39" height="917"/>
	
		<rect x="-21.71" y="-785.88" transform="matrix(-1.836970e-16 1 -1 -1.836970e-16 -310.8915 -343.8595)" class="st0" width="76.39" height="917"/>
	
		<rect x="-21.71" y="-709.46" transform="matrix(-1.836970e-16 1 -1 -1.836970e-16 -234.4747 -267.4427)" class="st0" width="76.39" height="917"/>
	
		<rect x="-21.71" y="-633.04" transform="matrix(-1.836970e-16 1 -1 -1.836970e-16 -158.0579 -191.026)" class="st0" width="76.39" height="917"/>
	
		<rect x="-21.71" y="-556.63" transform="matrix(-1.836970e-16 1 -1 -1.836970e-16 -81.6412 -114.6092)" class="st0" width="76.39" height="917"/>
	
		<rect x="-21.71" y="-480.21" transform="matrix(-1.836970e-16 1 -1 -1.836970e-16 -5.2244 -38.1924)" class="st0" width="76.39" height="917"/>
	
		<rect x="-21.71" y="-403.79" transform="matrix(-1.836970e-16 1 -1 -1.836970e-16 71.1924 38.2244)" class="st0" width="76.39" height="917"/>
	
		<rect x="-21.71" y="-327.38" transform="matrix(-1.836970e-16 1 -1 -1.836970e-16 147.6092 114.6412)" class="st0" width="76.39" height="917"/>
	
		<rect x="-21.71" y="-250.96" transform="matrix(-1.836970e-16 1 -1 -1.836970e-16 224.026 191.0579)" class="st0" width="76.39" height="917"/>
	
		<rect x="-21.71" y="-174.54" transform="matrix(-1.836970e-16 1 -1 -1.836970e-16 300.4427 267.4747)" class="st0" width="76.39" height="917"/>
	
		<rect x="-21.71" y="-98.13" transform="matrix(-1.836970e-16 1 -1 -1.836970e-16 376.8595 343.8915)" class="st0" width="76.39" height="917"/>
	
		<rect x="-21.71" y="-21.71" transform="matrix(-1.836970e-16 1 -1 -1.836970e-16 453.2763 420.3083)" class="st0" width="76.39" height="917"/>
</g>
<g id="Livello_1">
	<linearGradient id="SVGID_1_" gradientUnits="userSpaceOnUse" x1="-9.094947e-13" y1="-9.094947e-13" x2="32" y2="32">
		<stop  offset="0" style="stop-color:#5980FF"/>
		<stop  offset="1" style="stop-color:#3E21E2"/>
	</linearGradient>
	<rect y="0" class="st1" width="32" height="32"/>
	<polygon class="st2" points="6,6 9.33,6 9.33,22.66 19.33,22.66 19.33,25.99 6,25.99 	"/>
	<path class="st2" d="M16,6h-3.33v13.33h6.66l0-3.33h-3.34l0.01-6.66h0c3.68,0,6.66,2.98,6.66,6.66v10h3.34V16
		C25.99,10.48,21.52,6,16,6z"/>
</g>
</svg>
