<svg width="64" height="64" viewBox="0 0 64 64" fill="none" xmlns="http://www.w3.org/2000/svg">
<path d="M11.4744 38.8023C17.6824 33.9566 20.9555 32.3383 25.0424 34.5418C25.5818 34.88 26.9989 36.3703 27.4652 36.8C28.6812 37.9338 30.0435 38.8938 31.5155 39.6618L34.6424 41.2983C35.4744 41.7372 35.9041 42.688 35.6755 43.6023C35.4744 44.416 35.2092 45.6229 33.3441 46.2446C32.5395 46.5189 31.6709 46.5829 30.8298 46.4823L30.0618 46.3818C28.8275 46.2263 27.6115 45.9155 26.4504 45.4583C25.9201 45.248 25.3624 45.0286 24.7132 44.7452L20.8184 43.2823" stroke="#B0C8FF" stroke-width="4" stroke-miterlimit="10" stroke-linecap="round"/>
<path d="M35.7393 43.1361L36.5256 43.0081C36.8273 43.1635 37.1748 43.2092 37.513 43.1452L53.9793 41.3532C54.6102 41.2343 55.2685 41.2801 55.8719 41.5086C56.713 41.8286 57.0696 42.3498 57.5359 42.9989C57.9108 44.3063 58.6056 46.6012 55.7896 48.3475L36.5165 54.1715C33.8925 55.0035 29.5039 55.9635 26.6879 55.2229L19.7119 53.3029C18.8525 53.2115 18.1942 53.3943 17.3165 53.6046L7.46047 56.5761C7.01247 56.8869 6.3999 56.5669 6.3999 56.0275V44.2149C6.3999 42.7886 7.14047 41.4721 8.34733 40.7315L11.8033 38.6012" stroke="#B0C8FF" stroke-width="4" stroke-miterlimit="10" stroke-linecap="round"/>
<path d="M48.1098 10.8891C45.2207 8 40.5304 8 37.6412 10.8891L35.7395 12.7909L33.8378 10.8891C30.9487 8 26.2584 8 23.3692 10.8891C20.4801 13.7783 20.4801 18.4686 23.3692 21.3577L35.4652 33.4629C35.6115 33.6091 35.8401 33.6091 35.9772 33.4629L42.8435 26.5966L48.0824 21.3669C51.0081 18.4686 51.0081 13.7783 48.1098 10.8891Z" stroke="#B0C8FF" stroke-width="4" stroke-miterlimit="10" stroke-linecap="round" stroke-linejoin="round"/>
</svg>
