<svg width="64" height="64" viewBox="0 0 64 64" fill="none" xmlns="http://www.w3.org/2000/svg">
<path d="M57.5444 53.7901L42.1555 39.1941C41.5112 38.587 40.5819 38.4507 39.8137 38.7976C43.0476 35.3159 45.0301 30.6447 45.0301 25.515C45.0301 14.7353 36.2948 6 25.515 6C14.7353 6 6 14.7229 6 25.5026C6 36.2824 14.7353 45.0177 25.515 45.0177C30.6199 45.0177 35.254 43.06 38.7357 39.8632C38.3887 40.6314 38.5127 41.5607 39.1322 42.2174L53.7282 57.6064C54.2981 58.2011 55.2398 58.2135 55.8222 57.6312L57.5816 55.8717C58.1516 55.3018 58.1392 54.3477 57.5444 53.7901ZM25.515 39.5411C21.7607 39.5411 18.2418 38.079 15.5902 35.4274C12.9387 32.7759 11.4766 29.257 11.4766 25.5026C11.4766 21.7483 12.9387 18.2294 15.5902 15.5779C18.2418 12.9263 21.7607 11.4642 25.515 11.4642C29.2693 11.4642 32.7882 12.9263 35.4398 15.5779C38.0914 18.2294 39.5535 21.7483 39.5535 25.5026C39.5535 29.257 38.0914 32.7759 35.4398 35.4274C32.7882 38.079 29.2693 39.5411 25.515 39.5411Z" fill="#B0C8FF"/>
</svg>
