<svg width="32" height="32" viewBox="0 0 32 32" fill="none" xmlns="http://www.w3.org/2000/svg">
<path d="M9.66735 16.1061C9.25604 15.7376 8.62383 15.7722 8.25526 16.1835C7.88669 16.5948 7.92134 17.227 8.33265 17.5956L9.66735 16.1061ZM13.0723 20.5L12.4049 21.2447L13.0723 21.8427L13.7396 21.2447L13.0723 20.5ZM22.6674 13.2447C23.0787 12.8762 23.1133 12.244 22.7447 11.8326C22.3762 11.4213 21.744 11.3867 21.3326 11.7553L22.6674 13.2447ZM8.33265 17.5956L12.4049 21.2447L13.7396 19.7553L9.66735 16.1061L8.33265 17.5956ZM13.7396 21.2447L22.6674 13.2447L21.3326 11.7553L12.4049 19.7553L13.7396 21.2447Z" fill="#557AE7"/>
<rect x="1" y="1" width="30" height="30" rx="15" stroke="#557AE7" stroke-width="2"/>
</svg>
