<svg width="64" height="64" viewBox="0 0 64 64" fill="none" xmlns="http://www.w3.org/2000/svg">
<path d="M17.625 37.7774V26.2226C17.6246 25.7991 17.7422 25.3839 17.9647 25.0236C18.1872 24.6633 18.5057 24.3721 18.8845 24.1827L30.9787 18.1343C31.296 17.9763 31.6456 17.8941 32 17.8941C32.3544 17.8941 32.704 17.9763 33.0213 18.1343L45.1155 24.1827C45.4943 24.3721 45.8128 24.6633 46.0353 25.0236C46.2578 25.3839 46.3754 25.7991 46.375 26.2226V37.7774C46.3754 38.2009 46.2578 38.6161 46.0353 38.9764C45.8128 39.3367 45.4943 39.6279 45.1155 39.8173L33.0213 45.8657C32.704 46.0236 32.3544 46.1059 32 46.1059C31.6456 46.1059 31.296 46.0236 30.9787 45.8657L18.8845 39.8173C18.5057 39.6279 18.1872 39.3367 17.9647 38.9764C17.7422 38.6161 17.6246 38.2009 17.625 37.7774V37.7774Z" stroke="#B0C8FF" stroke-width="4" stroke-miterlimit="10"/>
<path d="M17.625 24.8125L32 32L46.375 24.8125" stroke="#B0C8FF" stroke-width="4" stroke-miterlimit="10"/>
<path d="M32 32V46.375" stroke="#B0C8FF" stroke-width="4" stroke-miterlimit="10"/>
<path d="M9 23.375V11.5683C9 10.8872 9.27059 10.2339 9.75225 9.75225C10.2339 9.27059 10.8872 9 11.5683 9H23.375" stroke="#B0C8FF" stroke-width="4" stroke-miterlimit="10"/>
<path d="M23.3749 55H11.5683C10.8871 55 10.2338 54.7294 9.75219 54.2478C9.27053 53.7661 8.99994 53.1128 8.99994 52.4317V40.625" stroke="#B0C8FF" stroke-width="4" stroke-miterlimit="10"/>
<path d="M55 40.625V52.4317C55 53.1128 54.7294 53.7661 54.2478 54.2478C53.7661 54.7294 53.1128 55 52.4317 55H40.625" stroke="#B0C8FF" stroke-width="4" stroke-miterlimit="10"/>
<path d="M40.625 9H52.4317C53.1128 9 53.7661 9.27059 54.2478 9.75225C54.7294 10.2339 55 10.8872 55 11.5683V23.375" stroke="#B0C8FF" stroke-width="4" stroke-miterlimit="10"/>
</svg>
