<svg width="64" height="64" viewBox="0 0 64 64" fill="none" xmlns="http://www.w3.org/2000/svg">
<path d="M23.3783 9H11.6217C10.1738 9 9 10.1738 9 11.6217V23.3783C9 24.8262 10.1738 26 11.6217 26H23.3783C24.8262 26 26 24.8262 26 23.3783V11.6217C26 10.1738 24.8262 9 23.3783 9Z" stroke="#B0C8FF" stroke-width="4" stroke-miterlimit="10"/>
<path d="M52.3783 9H40.6217C39.1738 9 38 10.1738 38 11.6217V23.3783C38 24.8262 39.1738 26 40.6217 26H52.3783C53.8262 26 55 24.8262 55 23.3783V11.6217C55 10.1738 53.8262 9 52.3783 9Z" stroke="#B0C8FF" stroke-width="4" stroke-miterlimit="10"/>
<path d="M52.3783 38H40.6217C39.1738 38 38 39.1738 38 40.6217V52.3783C38 53.8262 39.1738 55 40.6217 55H52.3783C53.8262 55 55 53.8262 55 52.3783V40.6217C55 39.1738 53.8262 38 52.3783 38Z" stroke="#B0C8FF" stroke-width="4" stroke-miterlimit="10"/>
<path d="M23.3783 38H11.6217C10.1738 38 9 39.1738 9 40.6217V52.3783C9 53.8262 10.1738 55 11.6217 55H23.3783C24.8262 55 26 53.8262 26 52.3783V40.6217C26 39.1738 24.8262 38 23.3783 38Z" stroke="#B0C8FF" stroke-width="4" stroke-miterlimit="10"/>
</svg>
