<?xml version="1.0" encoding="utf-8"?>
<!-- Generator: Adobe Illustrator 26.1.0, SVG Export Plug-In . SVG Version: 6.00 Build 0)  -->
<svg version="1.1" id="Layer_1" xmlns="http://www.w3.org/2000/svg" xmlns:xlink="http://www.w3.org/1999/xlink" x="0px" y="0px"
	 viewBox="0 0 100 100" style="enable-background:new 0 0 100 100;" xml:space="preserve">
<style type="text/css">
	.st0{fill:#404459;}
</style>
<g>
	<path class="st0" d="M57.5,48.3l24.9-24.9c-1.3-0.8-2.8-1.3-4.4-1.3H22.1c-2.2,0-4.2,0.9-5.6,2.3l23.9,23.9
		C45.1,53,52.8,53,57.5,48.3z"/>
	<path class="st0" d="M61.5,52.3c-3.5,3.5-8,5.2-12.6,5.2s-9.1-1.7-12.6-5.2L14,29.8c0,0.1,0,0.2,0,0.3v34.5c0,4.5,3.6,8.1,8.1,8.1
		H78c4.5,0,8.1-3.6,8.1-8.1V30.1c0-0.7-0.1-1.4-0.3-2.1L61.5,52.3z"/>
</g>
</svg>
