<?xml version="1.0" encoding="utf-8"?>
<!-- Generator: Adobe Illustrator 26.1.0, SVG Export Plug-In . SVG Version: 6.00 Build 0)  -->
<svg version="1.1" id="Layer_1" xmlns="http://www.w3.org/2000/svg" xmlns:xlink="http://www.w3.org/1999/xlink" x="0px" y="0px"
	 viewBox="0 0 100 100" style="enable-background:new 0 0 100 100;" xml:space="preserve">
<style type="text/css">
	.st0{fill:#404459;}
</style>
<path class="st0" d="M42.3,23.6l-8.5-10.2c-1.3-1.5-3.4-1.6-5-0.4l-9.6,8.2c-2.4,2-3.6,5.2-2.9,8.2c2.5,12.6,8.1,24.7,16.9,35.1
	s19.7,18,31.6,22.7c2.9,1.1,6.2,0.5,8.7-1.4l9.7-8c1.5-1.3,1.7-3.5,0.4-5l-8.5-10.2c-1-1.2-2.8-1.6-4.3-0.9l-12.2,6.4
	c-0.8,0.5-1.8,0.3-2.5-0.3c-4.3-3.7-8.4-7.9-12.2-12.4s-7.2-9.3-10.1-14.3c-0.4-0.7-0.4-1.8,0.2-2.5L42.4,28
	C43.4,26.7,43.3,24.9,42.3,23.6z"/>
</svg>
