<?xml version="1.0" encoding="utf-8"?>
<!-- Generator: Adobe Illustrator 26.1.0, SVG Export Plug-In . SVG Version: 6.00 Build 0)  -->
<svg version="1.1" id="Layer_1" xmlns="http://www.w3.org/2000/svg" xmlns:xlink="http://www.w3.org/1999/xlink" x="0px" y="0px"
	 viewBox="0 0 1240 800" style="enable-background:new 0 0 1240 800;" xml:space="preserve">
<style type="text/css">
	.st0{fill:none;stroke:#6A81FF;stroke-width:2;stroke-miterlimit:10;}
	.st1{fill:none;stroke:#6A81FF;stroke-miterlimit:10;}
	.st2{fill:none;stroke:#B0C3FF;stroke-width:6;stroke-linecap:round;stroke-miterlimit:10;}
</style>
<g>
	<path class="st0" d="M759.9,796.1H490c-31.8,0-57.5-25.7-57.5-57.5V62.5C432.5,30.7,458.3,5,490,5h269.9
		c31.8,0,57.5,25.7,57.5,57.5v676.1C817.4,770.4,791.7,796.1,759.9,796.1z"/>
	<path class="st1" d="M820.6,231.2l-3.2,2V127.4l3.2,2c2.6,1.6,4.2,4.7,4.2,8.1v85.5C824.9,226.4,823.2,229.5,820.6,231.2z"/>
	<path class="st1" d="M821.1,321.1l-3.2,2v-51.9l3.2,2c2.6,1.6,4.2,4.7,4.2,8.1V313C825.3,316.4,823.7,319.5,821.1,321.1z"/>
	<path class="st1" d="M652.4,23.1h-71.4c-1.8,0-3.2-1.5-3.2-3.2v0c0-1.8,1.5-3.2,3.2-3.2h71.4c1.8,0,3.2,1.5,3.2,3.2v0
		C655.6,21.6,654.1,23.1,652.4,23.1z"/>
	<line class="st2" x1="578.6" y1="764.1" x2="671.4" y2="764.1"/>
</g>
</svg>
